{"glyphs":{"A":{"ha":1006,"x_min":0,"x_max":0,"o":"m 1033 906 b 1039 903 1035 904 1038 904 l 1040 903 b 1044 900 1042 901 1043 901 l 1046 900 b 1050 896 1047 899 1049 897 b 1053 893 1051 894 1053 893 b 1056 890 1054 892 1054 892 b 1058 883 1057 889 1057 886 b 1060 878 1060 882 1060 879 b 1061 871 1061 875 1061 872 b 1061 871 1061 871 1061 871 b 1060 864 1061 868 1061 867 l 1060 863 b 1060 863 1060 863 1060 863 l 846 -53 b 811 -79 842 -68 828 -79 b 803 -78 808 -79 806 -79 b 776 -36 783 -74 772 -56 l 833 207 l 569 207 b 290 -79 496 47 415 -79 b 176 -36 231 -79 196 -56 b 139 64 151 -11 139 24 b 357 278 139 167 226 278 b 392 243 376 278 392 263 b 357 207 392 224 376 207 b 210 64 297 207 210 156 b 228 13 210 49 213 28 b 290 -8 240 -1 263 -8 b 567 376 404 -8 483 179 b 826 826 636 543 713 725 b 147 500 460 792 185 665 b 167 382 138 463 135 413 b 293 367 193 357 242 351 b 436 515 350 383 417 432 b 479 542 442 535 460 546 b 506 500 499 538 510 518 b 314 299 483 404 410 328 b 239 288 288 290 263 288 b 118 331 192 288 149 301 b 78 515 61 383 65 460 b 403 807 106 635 218 736 b 1025 906 571 871 793 906 l 1032 906 b 1033 906 1032 906 1033 906 m 979 831 b 632 350 818 794 724 568 b 601 278 621 325 611 301 l 850 278 "},"B":{"ha":865,"x_min":0,"x_max":0,"o":"m 413 879 b 721 829 531 917 649 897 b 778 596 779 774 800 692 b 681 447 763 532 729 481 b 750 392 708 433 732 415 b 785 167 781 353 813 282 b 557 -67 760 56 676 -29 b 425 -86 514 -79 468 -86 b 231 -33 351 -86 282 -68 b 106 -79 200 -62 158 -79 b 69 -44 86 -79 69 -64 b 106 -8 69 -25 86 -8 b 283 293 213 -8 240 94 b 285 297 283 294 285 296 b 217 293 261 289 238 288 b 121 381 176 303 142 335 b 113 547 101 428 97 486 b 413 879 149 708 261 833 m 433 813 b 181 532 306 774 213 668 b 233 361 157 429 199 369 b 322 458 268 353 303 392 b 325 471 324 463 324 467 l 325 472 b 325 472 325 472 325 472 b 518 765 369 640 419 765 b 554 731 539 765 554 750 b 518 696 554 711 539 696 b 394 457 465 696 422 565 b 390 439 393 450 392 444 b 374 369 383 413 378 389 b 353 278 365 338 358 307 b 274 22 331 179 311 89 b 535 1 339 -17 444 -28 b 717 183 592 18 689 65 b 694 347 733 253 725 308 b 547 408 664 386 610 408 b 511 443 528 408 511 424 b 547 479 511 463 528 479 b 708 613 629 479 690 529 b 672 778 725 683 713 740 b 433 813 619 828 525 840 "},"C":{"ha":686,"x_min":0,"x_max":0,"o":"m 421 888 b 613 851 496 911 564 897 b 665 476 686 782 706 649 b 507 265 626 307 542 272 b 393 310 463 257 419 274 b 400 499 358 360 360 431 b 449 513 410 517 432 522 b 461 464 465 503 471 481 b 451 351 432 411 436 371 b 493 335 461 338 476 331 b 596 493 526 342 571 386 b 564 800 629 638 618 750 b 442 821 535 828 490 835 b 161 440 299 776 197 599 b 322 -1 119 264 138 42 b 574 146 451 -32 551 50 b 615 172 578 165 597 178 b 642 131 635 168 647 149 b 513 -42 625 56 579 -6 b 372 -78 469 -65 421 -78 b 307 -71 350 -78 328 -75 b 92 457 158 -36 14 124 b 421 888 153 719 307 854 "},"D":{"ha":893,"x_min":0,"x_max":0,"o":"m 394 875 b 785 800 539 919 689 890 b 874 365 886 704 918 550 b 525 -68 803 36 606 -47 b 440 -79 496 -76 468 -79 b 260 -17 372 -79 308 -58 b 118 -79 226 -56 182 -79 b 83 -44 99 -79 83 -64 b 118 -8 83 -25 99 -8 b 288 249 218 -8 249 79 b 189 231 254 228 221 224 b 85 336 143 242 104 281 b 83 547 65 393 65 467 b 394 875 121 706 236 828 m 415 808 b 153 531 282 768 183 664 b 206 300 132 444 135 315 b 336 463 249 289 308 342 l 336 464 b 532 765 381 635 432 765 b 568 731 551 765 568 750 b 532 696 568 711 551 696 b 404 444 476 696 433 556 b 401 429 404 439 403 435 l 386 369 b 367 278 379 338 372 307 b 299 43 347 190 329 107 b 507 0 349 -4 428 -21 b 806 381 575 18 742 90 b 736 749 843 543 819 669 b 415 808 658 822 536 844 "},"E":{"ha":786,"x_min":0,"x_max":0,"o":"m 615 904 b 715 722 682 889 740 826 b 536 599 694 638 596 599 b 471 603 517 599 494 600 b 576 546 500 571 544 553 b 604 504 596 542 608 522 b 563 476 600 485 582 472 b 304 436 471 494 379 481 b 147 219 224 389 169 314 b 189 46 131 147 144 88 b 451 4 247 -8 353 -25 b 669 235 564 39 643 122 b 642 349 681 286 672 325 b 500 354 608 376 551 378 b 386 142 428 319 386 242 b 351 106 386 122 371 106 b 315 142 332 106 315 122 b 469 418 315 269 372 371 b 686 404 546 454 631 449 b 739 219 738 363 756 296 b 472 -62 706 82 608 -21 b 351 -81 432 -75 392 -81 b 140 -6 269 -81 193 -56 b 78 235 78 53 56 139 b 422 551 119 408 256 528 b 399 581 414 560 406 569 b 382 614 392 592 388 603 b 189 589 303 622 213 628 b 140 578 179 572 157 568 b 129 626 124 588 119 610 b 369 686 172 694 271 696 b 376 739 369 703 372 721 b 615 904 407 868 524 926 m 599 836 b 446 722 550 847 468 819 b 440 678 442 707 440 692 b 536 669 476 674 510 669 b 647 739 569 669 636 693 b 599 836 658 790 642 825 "},"F":{"ha":724,"x_min":0,"x_max":0,"o":"m 885 897 b 1001 808 965 897 1001 851 b 953 726 1001 776 983 747 b 835 696 922 706 882 696 b 711 721 796 696 756 706 b 600 418 661 643 628 532 b 626 436 617 421 624 426 b 668 463 631 456 650 467 b 694 419 688 458 700 439 b 582 344 681 360 628 347 b 313 -79 528 125 476 -79 b 278 -44 293 -79 278 -64 b 313 -8 278 -25 293 -8 b 508 342 418 -8 463 158 b 482 325 490 339 485 335 b 447 299 478 310 464 299 l 440 299 b 414 342 421 304 408 322 b 526 414 428 401 481 411 b 643 746 556 532 589 654 b 619 756 636 749 628 753 b 356 826 532 790 442 826 b 146 676 253 826 165 765 b 171 544 133 628 143 581 b 290 490 199 510 240 490 b 401 606 342 490 401 521 b 438 642 401 625 418 642 b 472 606 457 642 472 625 b 290 419 472 496 397 419 b 115 500 219 419 157 450 b 76 693 75 553 60 622 b 356 897 104 814 219 897 b 646 821 456 897 557 857 b 686 806 660 815 674 810 b 885 897 736 863 800 897 m 885 826 b 761 779 835 826 794 810 b 835 765 788 771 813 765 b 913 785 867 765 894 772 b 931 808 925 793 931 803 b 885 826 931 817 914 826 "},"G":{"ha":733,"x_min":0,"x_max":0,"o":"m 421 888 b 613 851 496 911 564 897 b 665 476 686 782 706 649 b 507 265 626 307 542 272 b 393 310 463 257 419 274 b 400 499 358 360 360 431 b 449 513 410 517 432 522 b 461 464 465 503 471 481 b 451 351 432 411 436 371 b 493 335 461 338 476 331 b 596 493 526 342 571 386 b 564 800 629 638 618 750 b 442 821 535 828 490 835 b 161 440 299 776 197 599 b 322 -1 119 264 138 42 b 574 146 451 -32 551 50 l 578 157 l 611 299 b 654 325 615 318 635 329 b 681 283 672 321 685 301 l 590 -103 b 668 -153 629 -112 653 -135 b 700 -312 701 -194 714 -257 b 658 -339 696 -331 678 -343 b 632 -296 639 -335 628 -315 b 613 -197 639 -267 635 -225 b 574 -172 603 -185 590 -176 l 565 -212 b 438 -386 533 -349 460 -381 b 410 -390 429 -389 419 -390 b 357 -369 390 -390 371 -383 b 333 -254 342 -356 318 -321 b 518 -100 353 -175 431 -111 l 535 -28 b 513 -42 528 -33 521 -37 b 372 -78 469 -65 421 -78 b 307 -71 350 -78 328 -75 b 92 457 158 -36 14 124 b 421 888 153 719 307 854 m 501 -175 b 401 -271 453 -190 413 -228 b 404 -318 396 -300 401 -314 b 418 -319 408 -321 414 -319 b 496 -196 438 -312 476 -281 "},"H":{"ha":844,"x_min":0,"x_max":0,"o":"m 207 903 b 728 896 329 969 528 967 b 750 856 743 889 753 872 b 715 826 747 839 733 826 b 419 374 536 826 475 600 b 513 376 450 375 482 376 b 724 415 603 379 715 382 l 829 869 b 872 896 835 888 853 900 b 899 853 892 890 903 872 l 792 400 b 792 400 792 400 792 400 l 686 -54 b 651 -81 682 -69 668 -81 l 643 -81 b 617 -37 625 -75 613 -57 l 701 322 b 514 306 651 310 585 308 b 401 301 474 306 436 304 b 143 -79 351 100 296 -79 b 107 -44 124 -79 107 -64 b 143 -8 107 -25 124 -8 b 326 293 239 -8 285 129 b 140 168 228 278 158 246 b 106 140 136 151 121 140 b 97 142 103 140 100 140 b 71 183 78 146 67 165 b 344 368 100 311 217 353 b 585 863 393 564 446 781 b 240 840 449 892 321 885 b 149 722 192 814 160 774 b 157 639 140 686 143 657 b 207 619 168 626 185 619 b 307 693 251 619 299 654 b 350 719 311 713 331 725 b 376 678 369 715 381 697 b 207 549 360 607 283 549 b 101 596 163 549 126 565 b 79 739 74 631 65 682 b 207 903 96 810 140 867 "},"I":{"ha":747,"x_min":0,"x_max":0,"o":"m 921 897 b 956 863 940 897 956 882 b 921 826 956 842 940 826 b 885 822 910 826 899 825 b 650 401 783 799 713 668 b 482 -33 599 183 561 36 b 721 -53 574 -50 668 -68 b 764 -76 739 -47 758 -57 b 740 -119 769 -94 758 -114 b 465 -101 671 -140 571 -122 b 140 -139 256 -61 158 -57 b 106 -167 136 -156 121 -167 b 97 -165 103 -167 100 -167 b 71 -124 78 -161 67 -142 b 236 -4 88 -49 143 -10 b 343 -10 269 -1 306 -4 b 349 -8 344 -8 346 -8 b 581 417 464 -8 504 88 b 699 751 617 571 654 676 b 547 664 650 726 597 697 b 258 369 388 560 276 447 b 386 163 236 274 275 210 b 404 115 403 154 411 133 b 357 97 396 97 375 89 b 189 385 215 158 160 256 b 508 724 222 524 424 668 b 867 890 619 796 764 869 b 921 897 883 894 901 897 "},"J":{"ha":621,"x_min":0,"x_max":0,"o":"m 849 896 b 871 856 864 889 874 872 b 836 826 868 839 854 826 b 539 393 692 826 614 713 b 440 69 513 276 485 158 b 475 -6 458 47 471 22 b 401 -167 482 -62 456 -122 b 379 -175 394 -172 388 -175 b 351 -162 368 -175 358 -171 b 357 -112 339 -147 342 -125 b 404 -15 392 -83 410 -49 b 400 1 404 -10 401 -4 b 244 -79 361 -49 311 -79 b 138 -39 194 -79 158 -65 b 122 35 121 -18 115 8 b 193 117 129 68 156 99 b 376 117 247 144 314 144 l 383 114 b 471 410 417 188 443 290 b 694 860 522 631 582 790 b 396 806 588 872 483 854 b 160 476 276 742 196 628 b 194 218 126 329 138 243 b 244 218 213 210 228 210 b 333 371 282 236 317 296 b 283 578 356 467 314 565 b 265 625 267 586 258 607 b 313 643 274 643 294 650 b 403 354 385 611 429 468 b 276 154 394 318 360 197 b 165 153 242 138 203 136 b 92 493 26 214 75 424 b 363 868 132 664 225 793 b 849 896 504 946 681 956 m 282 67 b 225 54 261 67 242 63 b 190 19 203 43 193 29 b 192 6 189 10 192 7 b 244 -8 194 1 207 -8 b 349 51 288 -8 321 13 b 282 67 326 61 304 67 "},"K":{"ha":906,"x_min":0,"x_max":0,"o":"m 1003 896 b 1029 854 1022 892 1033 872 b 764 543 992 694 876 611 b 786 521 772 536 781 529 b 793 219 828 469 831 378 b 819 0 764 94 772 21 b 838 -46 838 -7 846 -28 b 806 -67 832 -60 819 -67 b 792 -64 801 -67 796 -67 b 724 235 667 -10 710 175 b 732 478 754 364 757 446 b 688 496 725 485 714 494 b 528 342 614 451 553 407 b 258 -79 461 69 408 -79 b 222 -44 238 -79 222 -64 b 258 -8 222 -25 238 -8 b 451 326 350 -8 392 90 b 451 335 450 329 451 332 l 460 363 b 488 479 468 399 478 438 b 681 860 533 671 582 801 b 390 806 578 871 476 853 b 154 476 271 742 189 628 b 172 253 132 379 138 296 b 251 219 190 231 215 219 b 286 183 271 219 286 203 b 251 149 286 164 271 149 b 117 210 194 149 147 169 b 85 493 68 271 57 371 b 356 868 125 664 219 793 b 842 896 497 946 675 956 b 865 856 858 889 868 872 b 831 826 863 839 847 826 b 667 753 756 826 707 804 b 565 499 628 703 596 624 b 690 581 604 529 647 556 b 960 869 806 650 925 721 b 1003 896 965 889 983 901 "},"L":{"ha":850,"x_min":0,"x_max":0,"o":"m 814 892 b 864 531 897 854 914 738 b 628 150 817 335 735 204 b 492 125 585 129 539 121 b 458 56 482 99 471 76 b 661 -8 529 24 608 -8 b 710 24 694 -8 710 24 b 757 40 719 42 740 49 b 774 -7 775 32 783 11 b 661 -79 761 -33 724 -79 b 415 -3 592 -79 499 -42 b 214 -79 365 -56 301 -79 b 88 -36 151 -79 110 -65 b 72 35 71 -17 67 8 b 143 117 81 68 106 97 b 328 117 197 144 265 144 b 394 86 347 108 369 97 b 421 139 403 101 413 119 b 385 153 408 143 397 147 b 215 465 249 213 185 332 b 379 690 239 567 300 651 b 533 699 431 717 486 719 b 551 653 550 692 558 671 b 504 635 543 635 522 626 b 411 628 469 650 433 639 b 285 450 351 597 303 529 b 413 218 261 349 307 264 b 446 206 424 213 435 208 b 500 403 464 258 482 324 b 724 888 567 686 639 846 b 814 892 753 903 785 904 m 772 829 b 756 825 767 829 761 828 b 568 386 719 807 647 726 b 518 194 551 314 536 250 b 596 214 544 194 571 201 b 796 549 683 257 753 374 b 786 826 810 606 850 799 b 772 829 782 828 776 829 m 232 67 b 175 53 211 67 192 63 b 142 19 154 43 143 29 b 143 8 139 11 142 8 b 214 -8 144 6 158 -8 b 346 31 269 -8 311 1 b 299 51 329 38 314 46 b 232 67 278 61 254 67 "},"M":{"ha":960,"x_min":0,"x_max":0,"o":"m 568 903 b 582 900 572 903 578 901 b 615 874 597 900 611 890 b 681 590 617 868 657 724 b 683 571 682 583 683 578 b 706 601 690 581 697 592 b 926 886 847 803 924 883 b 969 893 938 897 954 900 b 986 854 983 886 990 869 b 874 368 986 853 953 707 b 865 8 814 110 849 31 b 901 -8 875 -4 886 -8 b 936 -44 921 -8 936 -25 b 901 -79 936 -64 921 -79 b 810 -36 864 -79 833 -64 b 804 383 757 31 756 172 l 883 724 b 763 561 851 682 811 629 b 700 465 739 526 718 496 b 665 128 736 182 685 142 b 588 121 654 118 626 104 b 535 183 561 132 543 154 b 626 481 524 224 525 310 b 611 578 622 511 617 543 b 576 743 601 635 588 694 l 440 158 b 296 -67 414 47 361 -35 b 233 -82 275 -76 254 -82 b 176 -69 214 -82 196 -78 b 75 158 96 -32 54 64 b 172 289 89 217 125 264 b 296 293 213 308 257 310 b 314 246 314 285 322 264 b 268 228 307 228 286 219 b 204 225 247 236 225 236 b 144 142 175 210 153 181 b 207 -4 131 81 156 18 b 264 -3 225 -14 244 -12 b 371 175 310 19 351 88 l 524 829 b 168 606 269 808 190 697 b 229 418 147 514 169 444 b 283 421 251 408 271 414 b 343 506 311 435 333 467 b 385 532 347 525 365 536 b 411 490 404 528 415 508 b 315 357 397 429 363 381 b 254 343 296 347 275 343 b 201 354 236 343 219 346 b 99 621 110 394 69 496 b 568 903 139 793 306 893 m 639 356 b 603 203 604 279 596 228 b 617 185 606 192 611 188 b 622 183 619 183 622 183 b 639 356 632 192 646 236 "},"N":{"ha":933,"x_min":0,"x_max":0,"o":"m 1022 897 b 1058 863 1042 897 1058 882 b 1022 826 1058 842 1042 826 b 961 731 1018 826 994 822 b 889 461 935 660 913 564 b 603 -79 826 196 761 -79 b 567 -44 582 -79 567 -64 b 603 -8 567 -25 582 -8 b 607 -6 603 -8 604 -8 b 636 229 617 6 640 51 b 607 617 633 350 619 492 b 601 674 606 636 603 656 l 549 450 b 535 390 543 424 539 410 l 496 219 b 338 -67 460 64 406 -32 b 279 -81 319 -75 299 -81 b 218 -67 258 -81 239 -76 b 140 104 129 -28 126 47 b 219 201 150 146 178 181 b 336 211 258 221 304 225 b 354 164 354 203 363 182 b 307 146 346 146 325 139 b 251 139 297 151 274 150 b 208 88 235 131 215 115 b 247 -3 194 26 219 10 b 306 -3 269 -11 288 -12 b 426 235 333 11 386 60 l 467 407 b 481 465 471 425 474 440 l 564 824 b 151 542 379 808 193 719 b 204 315 124 425 143 342 b 260 319 225 307 246 313 b 350 457 300 340 335 393 b 303 625 363 507 371 594 b 285 671 285 632 276 653 b 332 689 293 689 314 697 b 419 440 414 653 447 561 b 292 257 400 356 351 286 b 176 251 253 238 211 235 b 83 558 131 271 32 339 b 624 897 131 761 347 897 b 658 863 643 897 658 882 b 678 624 658 813 667 725 b 704 92 699 406 715 218 b 819 478 753 192 789 350 b 1022 897 875 713 918 897 "},"O":{"ha":688,"x_min":0,"x_max":0,"o":"m 422 888 b 614 851 497 911 565 897 b 667 476 688 782 707 649 b 613 326 654 426 636 374 b 433 -43 607 172 533 21 b 322 -78 397 -67 360 -78 b 243 -60 296 -78 269 -72 b 93 457 124 -8 22 154 b 422 888 154 719 308 854 m 490 828 b 443 821 475 828 460 825 b 163 440 300 776 199 599 b 271 4 101 181 179 44 b 394 17 313 -14 354 -10 b 521 207 450 51 496 124 b 399 161 486 178 446 161 b 286 226 351 161 311 185 b 256 361 267 261 256 307 b 308 579 256 433 275 515 b 461 700 347 657 401 700 b 497 665 481 700 497 685 b 461 629 497 646 481 629 b 326 361 396 629 326 492 b 347 263 326 319 333 285 b 399 232 360 242 376 232 b 597 493 494 232 568 367 b 565 800 631 638 619 750 b 490 828 546 818 521 828 "},"P":{"ha":813,"x_min":0,"x_max":0,"o":"m 625 864 b 796 397 779 797 846 614 b 589 78 763 256 682 129 b 486 51 556 60 521 51 b 421 63 464 51 442 54 b 324 158 381 76 344 111 b 106 -79 286 28 229 -79 b 69 -44 86 -79 69 -64 b 106 -8 69 -25 86 -8 b 289 308 207 -8 243 111 l 308 390 b 553 765 357 581 415 765 b 588 731 572 765 588 750 b 553 696 588 711 572 696 b 386 407 475 696 426 560 b 415 426 396 414 406 421 b 517 431 450 443 486 444 b 536 385 535 424 543 403 b 489 367 528 367 507 358 b 447 363 476 371 463 371 b 383 279 418 347 392 313 b 444 129 364 193 410 142 b 554 140 481 117 517 121 b 726 414 631 182 699 290 b 597 799 769 594 718 746 b 383 781 538 825 458 818 b 188 525 286 732 214 638 b 222 263 160 404 193 274 b 240 215 240 254 249 233 b 193 197 232 197 211 189 b 114 339 144 218 124 286 b 119 540 103 404 104 478 b 351 844 150 675 235 785 b 625 864 444 890 547 897 "},"Q":{"ha":808,"x_min":0,"x_max":0,"o":"m 631 879 b 768 369 718 840 851 724 b 469 -53 724 175 614 21 l 453 -61 b 567 -82 493 -71 531 -78 b 728 -61 661 -93 713 -78 b 778 -61 742 -47 764 -47 b 779 -111 792 -74 793 -96 b 628 -156 749 -142 694 -156 b 326 -96 542 -156 432 -133 b 100 -61 251 -106 174 -93 b 69 -25 76 -51 71 -35 b 88 14 68 -10 75 4 b 257 7 115 35 186 38 b 335 -24 282 -4 308 -14 b 438 10 369 -18 404 -7 b 699 385 564 74 660 211 b 603 814 751 611 718 764 b 475 800 568 829 522 824 b 239 450 365 744 278 614 b 290 101 178 188 235 126 b 390 108 321 88 354 90 b 575 401 471 149 542 261 b 546 628 600 508 586 610 b 528 675 528 636 519 657 b 574 693 535 693 556 701 b 644 386 663 654 674 511 b 422 44 606 224 522 96 b 263 36 368 18 313 15 b 171 465 108 104 132 301 b 443 863 214 650 315 799 b 631 879 510 896 576 903 "},"R":{"ha":750,"x_min":0,"x_max":0,"o":"m 419 879 b 725 831 538 915 654 897 b 782 596 785 775 806 692 b 615 358 750 453 674 388 b 582 344 604 353 593 349 b 649 140 636 301 672 240 b 654 -4 619 17 631 6 b 674 -51 672 -12 681 -33 b 640 -72 667 -64 654 -72 b 626 -69 636 -72 631 -71 b 579 156 536 -31 558 64 b 471 326 599 238 571 282 b 369 343 438 328 403 333 b 358 293 367 326 363 310 b 332 188 350 257 342 222 l 332 185 b 106 -79 293 43 239 -79 b 69 -44 86 -79 69 -64 b 106 -8 69 -25 86 -8 b 256 176 182 -8 221 58 b 121 547 188 215 67 319 b 419 879 157 710 269 833 m 440 813 b 190 532 315 774 221 668 b 275 247 175 469 157 325 b 289 308 279 267 285 288 b 308 390 296 335 301 363 b 553 765 357 581 415 765 b 588 731 572 765 588 750 b 553 696 588 711 572 696 b 388 411 476 696 428 564 b 479 397 418 401 449 397 b 583 421 517 397 551 406 b 714 613 649 454 693 519 b 676 779 731 683 718 740 b 440 813 625 828 532 840 "},"S":{"ha":881,"x_min":0,"x_max":0,"o":"m 735 871 b 899 500 892 803 929 631 b 751 267 879 413 831 306 b 642 263 715 249 678 247 b 521 467 561 297 514 379 l 461 410 b 406 357 443 392 425 374 b 596 253 456 319 521 288 b 750 171 654 226 711 201 b 811 33 803 131 822 85 b 735 -61 801 -8 774 -42 b 542 -56 682 -87 611 -86 b 404 65 471 -24 428 25 b 275 -83 378 -19 342 -83 b 240 -47 256 -83 240 -67 b 275 -12 240 -28 256 -12 b 369 213 317 -12 349 122 b 413 239 374 231 393 243 b 439 196 431 233 443 215 b 569 10 432 168 461 57 b 703 1 621 -12 669 -15 b 742 50 724 13 736 29 b 567 189 753 100 683 136 b 353 310 497 221 417 257 b 92 228 267 238 179 190 b 72 275 74 236 65 257 b 119 293 81 292 101 300 b 301 360 172 269 236 304 b 251 596 253 418 228 494 b 449 857 279 714 349 807 b 735 871 539 903 649 908 m 706 806 b 479 793 639 835 553 831 b 321 581 422 765 349 704 b 354 406 304 507 318 451 b 413 461 374 424 393 442 b 742 631 528 572 636 676 b 761 583 760 622 768 601 b 714 565 753 565 732 557 b 693 569 707 568 700 569 b 654 560 681 569 667 565 b 594 483 625 544 603 517 b 669 328 579 417 610 354 b 719 329 688 319 703 321 b 829 515 765 353 810 428 b 706 806 869 685 771 778 "},"T":{"ha":682,"x_min":0,"x_max":0,"o":"m 885 897 b 1001 808 965 897 1001 851 b 953 726 1001 776 983 747 b 835 696 922 706 882 696 b 711 721 796 696 756 706 b 583 351 651 628 617 489 b 313 -79 529 129 478 -79 b 278 -44 293 -79 278 -64 b 313 -8 278 -25 293 -8 b 514 368 422 -8 467 174 b 643 746 547 500 582 643 b 619 756 636 749 628 753 b 356 826 532 790 442 826 b 146 676 253 826 165 765 b 171 544 133 628 143 581 b 290 490 199 510 240 490 b 401 606 342 490 401 521 b 438 642 401 625 418 642 b 472 606 457 642 472 625 b 290 419 472 496 397 419 b 115 500 219 419 157 450 b 76 693 75 553 60 622 b 356 897 104 814 219 897 b 646 821 456 897 557 857 b 686 806 660 815 674 810 b 885 897 736 863 800 897 m 885 826 b 761 779 835 826 794 810 b 835 765 788 771 813 765 b 913 785 867 765 894 772 b 931 808 925 793 931 803 b 885 826 931 817 914 826 "},"U":{"ha":1001,"x_min":0,"x_max":0,"o":"m 440 900 b 611 819 510 900 569 872 b 657 457 676 738 692 608 b 564 207 635 364 597 281 b 510 24 529 131 497 57 b 538 -1 513 17 518 7 b 621 1 567 -14 593 -12 b 897 586 722 51 822 265 l 897 588 b 1133 897 942 768 993 897 b 1168 863 1153 897 1168 882 b 1133 826 1168 842 1153 826 b 940 457 1028 826 993 693 b 917 353 933 422 925 388 b 871 161 896 264 881 199 b 864 129 868 144 865 135 b 861 121 863 126 863 124 b 883 -11 850 64 860 -1 b 903 -58 901 -19 910 -40 b 869 -79 896 -71 883 -79 b 856 -76 865 -79 860 -78 b 786 75 803 -53 786 14 b 653 -62 738 -3 692 -43 b 578 -81 628 -75 603 -81 b 510 -65 556 -81 532 -76 b 444 -3 476 -51 454 -31 b 500 236 419 60 456 138 b 588 472 532 307 567 386 b 556 775 618 601 606 713 b 440 829 528 811 489 829 b 156 531 311 829 197 710 b 217 254 122 389 144 285 b 317 257 250 239 283 240 b 447 465 375 286 422 363 b 489 492 451 485 471 496 b 515 450 508 488 521 468 b 349 193 486 324 426 233 b 189 189 296 168 242 167 b 86 547 82 235 44 369 b 440 900 136 761 275 900 "},"V":{"ha":844,"x_min":0,"x_max":0,"o":"m 440 900 b 594 829 504 900 557 876 b 628 457 654 754 667 621 b 438 18 575 228 506 94 b 574 107 493 36 538 67 b 736 493 643 182 692 297 b 940 882 788 708 856 840 b 1044 888 975 900 1013 901 b 1064 840 1063 879 1071 858 b 1017 822 1056 822 1035 815 b 972 819 1003 828 989 828 b 806 476 936 801 865 732 b 253 -79 721 117 608 -79 b 217 -44 233 -79 217 -64 b 253 -8 217 -25 233 -8 b 560 472 374 -8 489 171 b 539 786 592 614 585 728 b 440 829 515 815 483 829 b 156 531 311 829 197 710 b 217 254 122 389 144 285 b 317 257 250 239 283 240 b 447 465 375 286 422 363 b 489 492 451 485 471 496 b 515 450 508 488 521 468 b 349 193 486 324 426 233 b 189 189 296 168 242 167 b 86 547 82 235 44 369 b 440 900 136 761 275 900 "},"W":{"ha":1053,"x_min":0,"x_max":0,"o":"m 440 900 b 611 819 510 900 569 872 b 657 457 676 738 692 608 b 546 179 633 356 588 261 b 492 -7 506 94 463 8 b 511 -6 494 -8 499 -10 b 776 442 574 21 682 190 b 799 507 783 463 792 485 l 831 600 b 875 622 836 618 857 628 b 897 578 893 615 903 596 b 844 422 882 525 864 472 b 747 107 800 289 764 182 b 744 -6 725 8 742 -4 b 772 -3 750 -8 758 -10 b 988 493 799 10 893 85 b 1204 890 1051 767 1140 860 b 1310 894 1240 908 1278 910 b 1326 847 1328 885 1335 864 b 1279 831 1318 829 1297 821 b 1235 826 1267 836 1251 835 b 1057 476 1201 811 1119 746 b 803 -67 1007 261 922 -7 b 717 -71 774 -82 744 -83 b 667 56 667 -49 661 6 b 539 -71 621 -11 578 -54 b 499 -79 524 -76 510 -79 b 460 -69 482 -79 469 -75 b 418 56 429 -54 399 -19 b 483 210 429 99 454 150 b 588 472 522 289 565 379 b 556 775 618 601 606 713 b 440 829 528 811 489 829 b 156 531 311 829 197 710 b 217 254 122 389 144 285 b 317 257 250 239 283 240 b 447 465 375 286 422 363 b 489 492 451 485 471 496 b 515 450 508 488 521 468 b 349 193 486 324 426 233 b 189 189 296 168 242 167 b 86 547 82 235 44 369 b 440 900 136 761 275 900 "},"X":{"ha":928,"x_min":0,"x_max":0,"o":"m 440 900 b 611 819 510 900 569 872 b 665 504 669 746 688 636 b 857 869 753 619 828 744 b 900 896 861 889 881 901 b 926 854 918 892 931 872 b 633 350 883 672 758 500 b 669 -1 594 142 606 25 b 746 3 699 -15 728 -7 b 826 104 785 22 815 63 b 868 131 831 122 849 135 b 894 88 888 126 899 107 b 778 -60 881 25 835 -32 b 701 -79 753 -74 726 -79 b 642 -67 681 -79 660 -75 b 546 247 557 -31 526 67 b 535 235 543 243 539 239 b 331 -51 433 117 346 17 b 296 -79 326 -68 313 -79 l 288 -79 b 261 -36 269 -74 257 -56 b 482 281 282 49 369 151 b 568 381 510 313 539 346 b 588 472 574 410 581 440 b 556 775 618 601 606 713 b 440 829 528 811 489 829 b 156 531 311 829 197 710 b 217 254 122 389 144 285 b 317 257 250 239 283 240 b 447 465 375 286 422 363 b 489 492 451 485 471 496 b 515 450 508 488 521 468 b 349 193 486 324 426 233 b 189 189 297 168 242 167 b 86 547 82 235 44 369 b 440 900 136 761 275 900 "},"Y":{"ha":988,"x_min":0,"x_max":0,"o":"m 440 900 b 611 819 510 900 569 872 b 657 457 676 738 692 608 b 592 238 638 379 613 303 b 556 -8 553 119 515 10 b 600 -4 561 -10 575 -17 b 889 553 700 47 824 288 b 1133 897 935 750 985 897 b 1168 863 1153 897 1168 882 b 1133 826 1168 842 1153 826 b 940 457 1028 826 993 693 b 917 353 932 422 925 388 b 868 153 886 221 874 175 l 863 126 b 863 126 863 126 863 126 b 783 -212 804 -121 783 -211 b 749 -240 779 -229 765 -240 b 742 -239 746 -240 744 -240 b 715 -197 722 -235 710 -215 l 782 96 b 632 -67 742 28 689 -37 b 571 -82 610 -78 589 -82 b 528 -74 554 -82 539 -78 b 471 65 481 -53 461 -6 b 524 260 478 118 499 183 b 588 472 546 324 569 397 b 556 775 618 601 606 713 b 440 829 528 811 489 829 b 156 531 311 829 197 710 b 217 254 122 389 144 285 b 317 257 250 239 283 240 b 447 465 375 286 422 363 b 489 492 451 485 471 496 b 515 450 508 488 521 468 b 349 193 486 324 426 233 b 189 189 297 168 242 167 b 86 547 82 235 44 369 b 440 900 136 761 275 900 "},"Z":{"ha":1004,"x_min":0,"x_max":0,"o":"m 1139 893 b 1254 804 1218 893 1254 847 b 1206 722 1254 772 1236 743 b 1088 690 1175 701 1135 690 b 976 713 1053 690 1015 700 b 760 396 901 626 824 504 b 824 411 788 396 811 399 b 874 411 838 425 860 425 b 874 361 888 397 888 375 b 726 326 835 322 781 325 l 718 326 b 686 274 707 308 696 290 b 390 -4 608 144 501 53 b 621 -43 478 -14 554 -29 b 928 -18 765 -74 853 -92 b 978 -19 943 -6 965 -6 b 978 -69 992 -33 992 -56 b 796 -140 922 -122 863 -140 b 607 -112 739 -140 676 -128 b 197 -71 497 -90 365 -61 b 106 -79 165 -76 135 -79 b 69 -46 86 -79 71 -65 b 101 -8 68 -28 82 -11 l 190 0 b 625 310 340 26 515 125 b 632 322 628 314 631 318 b 579 292 613 317 594 308 b 554 282 572 286 563 282 b 529 292 544 282 536 286 b 529 343 515 306 515 329 b 678 399 574 388 628 397 b 906 739 747 515 825 642 l 874 751 b 610 822 785 786 694 822 b 399 672 506 822 419 761 b 424 540 388 624 396 576 b 543 486 451 506 494 486 b 654 601 594 486 654 517 b 690 638 654 621 671 638 b 725 601 710 638 725 621 b 543 415 725 492 650 415 b 369 496 474 415 410 446 b 329 689 328 549 313 618 b 610 893 357 808 472 893 b 899 817 708 893 810 853 b 956 794 918 810 938 801 b 1139 893 1017 854 1078 893 m 1139 822 b 1032 769 1106 822 1069 803 b 1088 761 1051 765 1071 761 b 1165 781 1119 761 1147 768 b 1183 804 1179 789 1183 799 b 1139 822 1183 813 1167 822 "},"a":{"ha":533,"x_min":0,"x_max":0,"o":"m 299 496 b 353 451 321 486 339 471 l 354 461 b 397 488 358 481 378 492 b 424 446 415 483 428 465 l 415 407 l 368 207 b 392 63 351 128 367 72 b 453 86 407 57 429 65 b 529 206 483 114 511 157 b 544 256 535 222 540 239 b 586 282 549 274 568 286 b 613 239 606 276 617 258 b 594 181 608 219 603 200 b 401 -10 551 64 472 -10 b 367 -4 389 -10 378 -8 b 297 89 331 10 307 43 b 136 -3 250 31 190 -3 b 86 7 119 -3 103 0 b 33 321 -3 46 -26 185 b 147 469 60 383 101 436 b 299 496 200 506 253 515 m 250 435 b 189 411 226 435 203 421 b 99 293 153 386 119 343 b 115 72 61 208 60 97 b 138 68 122 69 129 68 b 288 210 190 68 256 136 b 313 357 310 260 319 314 b 271 431 310 379 301 418 b 250 435 264 433 257 435 "},"b":{"ha":410,"x_min":0,"x_max":0,"o":"m 139 651 b 165 608 158 647 169 628 l 135 476 b 254 508 174 507 215 519 b 329 207 339 482 372 350 b 264 75 314 157 292 111 b 421 251 354 94 394 147 b 463 278 425 271 443 282 b 489 236 482 274 493 256 b 206 -7 451 60 339 -10 b 125 -6 189 -7 131 -7 b 100 -1 117 -6 108 -4 b 10 244 19 22 -15 169 l 50 421 l 96 625 b 139 651 100 643 119 656 m 224 442 b 93 279 183 442 122 378 b 121 67 60 171 81 78 b 189 96 139 61 164 72 b 261 228 219 126 246 175 b 233 440 294 335 274 428 b 224 442 231 440 228 442 "},"c":{"ha":349,"x_min":0,"x_max":0,"o":"m 257 514 b 336 474 303 511 325 490 b 335 351 356 444 356 401 b 289 332 328 333 308 325 b 269 378 271 339 263 360 b 276 435 281 407 282 428 b 253 443 272 442 260 443 b 101 297 190 447 128 358 b 78 118 83 258 58 183 b 124 71 86 96 100 79 b 235 81 157 57 200 61 b 344 207 289 110 324 150 b 360 256 351 224 356 239 b 401 282 364 275 383 288 b 429 240 421 278 433 260 b 411 182 424 221 418 201 b 269 18 383 110 338 57 b 165 -8 238 1 201 -8 b 97 4 142 -8 118 -4 b 11 97 54 21 24 54 b 36 325 -17 183 15 278 b 115 446 46 346 71 400 b 257 514 160 493 208 517 "},"d":{"ha":533,"x_min":0,"x_max":0,"o":"m 460 754 b 486 711 479 750 492 731 l 368 206 b 392 61 351 128 367 71 b 529 204 425 49 493 108 b 544 254 535 221 540 238 b 586 281 549 274 568 285 b 613 239 606 276 617 257 b 594 179 608 218 603 199 b 401 -11 551 64 472 -11 b 367 -6 389 -11 378 -10 b 297 88 331 8 307 42 b 136 -4 250 31 190 -4 b 86 7 119 -4 103 0 b 33 321 -3 46 -26 183 b 299 494 93 457 210 533 b 353 450 321 485 339 469 l 418 728 b 460 754 422 746 442 758 m 249 435 b 99 292 196 435 131 365 b 115 72 61 207 60 96 b 288 210 171 47 251 125 b 313 357 310 260 319 313 b 271 429 310 378 301 417 b 249 435 264 433 257 435 "},"e":{"ha":438,"x_min":0,"x_max":0,"o":"m 158 488 b 332 474 258 546 310 504 b 301 278 379 407 332 317 b 83 157 240 201 157 157 l 81 157 b 132 78 88 129 103 99 b 271 58 181 42 235 47 b 435 204 343 79 410 140 b 449 254 440 221 446 238 b 492 281 454 274 472 285 b 518 238 511 276 522 257 b 500 179 514 218 508 199 b 292 -10 468 94 383 18 b 218 -21 267 -17 242 -21 b 90 21 171 -21 128 -7 b 7 214 32 63 3 132 b 158 488 11 324 75 438 m 275 432 b 194 426 268 440 254 461 b 78 228 136 392 88 308 b 246 322 131 226 197 263 b 275 432 269 351 293 407 "},"f":{"ha":232,"x_min":0,"x_max":0,"o":"m 133 618 b 158 578 151 614 163 596 l 53 138 b 54 129 54 135 54 132 b 88 40 54 83 67 47 b 147 64 103 35 125 43 b 217 175 176 89 201 129 l 243 249 b 285 268 249 265 268 275 b 306 226 303 263 313 243 l 281 153 b 193 14 260 96 229 47 b 99 -28 161 -14 129 -28 b 65 -22 88 -28 76 -26 b 22 8 49 -17 35 -6 l -24 -181 b -56 -206 -28 -196 -40 -206 l -64 -206 b -89 -165 -82 -201 -93 -183 l 93 593 b 133 618 97 611 115 622 "},"g":{"ha":490,"x_min":0,"x_max":0,"o":"m 428 501 b 451 458 446 496 457 476 l 325 -3 b 417 39 363 3 392 17 b 492 188 449 69 474 118 l 510 289 b 550 317 513 308 531 321 b 578 276 568 314 581 296 l 560 174 b 558 171 560 172 560 172 b 464 -11 538 86 507 28 b 306 -74 422 -50 371 -71 l 296 -108 l 296 -110 b 249 -194 294 -111 282 -154 b 181 -249 229 -218 207 -236 b 111 -264 160 -258 136 -264 b 76 -260 100 -264 88 -262 l 74 -260 b 11 -151 29 -249 3 -203 b 86 -46 17 -110 44 -71 b 253 -4 129 -19 185 -6 l 265 44 b 240 25 257 36 249 31 b 140 -8 206 3 172 -8 b 85 4 121 -8 103 -4 b 1 136 39 25 10 72 b 36 321 -4 193 7 260 b 157 467 65 383 108 435 b 311 488 211 501 265 510 b 372 429 338 475 357 456 l 385 476 b 428 501 390 496 410 506 m 256 431 b 194 408 240 431 221 425 b 100 292 157 383 124 342 b 71 144 76 242 65 189 b 114 67 76 92 101 74 b 201 83 128 60 157 54 b 297 200 239 107 274 149 b 325 347 321 250 331 303 b 282 425 319 400 296 418 b 256 431 276 428 268 431 m 233 -75 b 79 -162 122 -81 85 -131 b 90 -193 78 -176 82 -189 b 194 -151 132 -200 165 -186 b 229 -89 217 -124 228 -93 "},"h":{"ha":461,"x_min":0,"x_max":0,"o":"m 144 663 b 171 619 164 658 175 639 l 133 463 b 235 513 167 496 200 513 b 297 486 268 513 286 497 b 304 281 332 443 319 368 b 319 64 285 168 274 82 b 457 207 349 53 417 103 b 472 257 463 224 468 240 b 514 283 476 276 496 288 b 540 240 533 279 546 260 b 524 182 536 221 531 201 b 329 -8 479 67 400 -8 b 294 -3 317 -8 306 -7 b 235 292 190 38 214 179 b 243 440 243 344 257 424 b 235 442 242 442 236 442 b 133 344 207 442 169 407 b 81 236 101 292 81 236 b 79 232 81 233 79 233 l 29 18 b -6 -10 25 1 10 -10 b -14 -8 -8 -10 -11 -10 b -40 33 -33 -4 -44 15 l 101 636 b 144 663 107 656 125 667 "},"i":{"ha":238,"x_min":0,"x_max":0,"o":"m 107 593 b 149 551 129 593 149 575 b 107 511 149 529 129 511 b 65 551 85 511 65 529 b 107 593 65 575 85 593 m 100 482 b 126 439 118 478 131 458 l 118 401 l 71 200 b 94 56 54 122 69 65 b 156 81 110 50 132 60 b 232 200 186 107 214 151 b 247 249 238 215 243 232 b 289 275 251 268 271 279 b 315 233 308 271 319 251 b 299 174 311 213 306 193 b 203 28 275 114 242 63 b 104 -17 169 -1 136 -17 b 69 -10 92 -17 81 -15 b 3 217 6 14 -22 106 l 49 417 l 57 454 b 100 482 61 474 81 486 "},"j":{"ha":161,"x_min":0,"x_max":0,"o":"m 143 593 b 185 551 167 593 185 575 b 143 511 185 529 167 511 b 103 551 121 511 103 529 b 143 593 103 575 121 593 m 121 469 b 142 424 139 463 149 442 b 28 42 96 306 64 183 b -8 -97 17 -3 6 -49 b 83 -208 28 -126 60 -164 b 69 -257 93 -226 86 -247 b 21 -243 53 -265 31 -260 b -32 -171 7 -215 -11 -190 b -211 -289 -65 -239 -137 -289 l -215 -289 b -328 -212 -265 -287 -308 -258 b -301 -74 -347 -165 -337 -111 b -71 -58 -242 -10 -137 -28 l -40 60 b 75 449 -3 203 28 326 b 121 469 82 467 103 476 m -190 -101 b -249 -122 -214 -101 -236 -107 b -262 -185 -269 -143 -269 -168 b -214 -218 -258 -194 -246 -217 b -90 -128 -162 -219 -108 -179 b -190 -101 -117 -112 -156 -101 "},"k":{"ha":419,"x_min":0,"x_max":0,"o":"m 138 643 b 164 600 157 639 169 619 l 151 547 b 199 560 165 553 181 558 b 275 528 231 564 260 551 b 268 407 297 492 289 440 b 199 338 249 375 224 353 b 225 310 208 329 217 321 b 253 165 257 264 254 211 l 251 157 b 278 63 250 107 253 72 b 339 88 293 57 315 65 b 415 206 368 114 396 157 b 431 256 421 222 426 239 b 472 282 435 274 453 286 b 499 239 492 278 503 258 b 481 181 494 219 489 200 b 288 -10 438 65 358 -10 b 253 -4 275 -10 264 -8 b 181 160 175 25 179 115 l 182 169 b 167 269 183 207 185 243 b 96 306 151 290 129 301 l 32 17 b -3 -10 28 1 13 -10 l -11 -10 b -37 33 -31 -6 -42 14 l 46 406 l 96 617 b 138 643 100 636 119 647 m 211 490 b 207 489 210 490 208 490 b 114 382 189 488 139 481 b 208 444 160 390 186 408 b 215 489 219 463 219 485 b 211 490 215 489 214 490 "},"l":{"ha":238,"x_min":0,"x_max":0,"o":"m 140 651 b 167 608 158 647 171 628 l 119 406 l 72 206 b 96 61 56 128 71 71 b 233 206 125 50 193 100 b 249 254 239 221 244 238 b 290 281 253 274 272 285 b 317 239 310 276 321 257 b 300 179 313 219 307 199 b 106 -11 256 64 176 -11 b 71 -4 93 -11 82 -10 b 4 222 7 19 -21 111 l 50 422 l 97 625 b 140 651 101 643 121 656 "},"m":{"ha":679,"x_min":0,"x_max":0,"o":"m 233 514 b 303 481 263 514 286 503 b 324 426 314 465 319 446 b 454 510 365 482 410 510 b 524 476 483 510 507 499 b 522 236 571 411 532 268 l 515 207 b 539 63 499 128 514 71 b 676 206 568 50 636 101 b 692 254 682 222 688 239 b 733 281 696 274 715 286 b 760 239 753 276 765 258 b 743 181 756 219 750 200 b 549 -11 699 64 619 -11 b 514 -4 536 -11 525 -8 b 447 222 450 21 422 111 b 467 435 464 304 493 400 b 454 439 464 438 463 439 b 353 343 426 439 389 404 b 249 15 292 240 294 213 b 214 -11 244 -1 229 -11 l 206 -11 b 179 32 186 -7 175 13 b 246 438 254 335 269 407 b 233 443 243 440 242 443 b 79 238 179 443 110 319 l 26 19 b -7 -8 24 3 8 -8 b -15 -7 -10 -8 -12 -8 b -42 36 -35 -3 -46 17 l 61 464 b 104 490 67 482 85 494 b 131 463 118 486 128 475 b 233 514 164 497 199 514 "},"n":{"ha":460,"x_min":0,"x_max":0,"o":"m 233 511 b 303 478 263 511 286 500 b 301 238 350 413 311 271 l 294 208 b 318 64 278 129 293 72 b 379 88 333 58 356 67 b 456 207 410 115 438 158 b 471 256 461 224 467 240 b 513 283 475 275 494 288 b 539 240 532 278 544 260 b 522 182 535 221 529 201 b 426 36 499 122 465 71 b 328 -10 394 6 360 -10 b 293 -3 315 -10 304 -7 b 226 224 229 22 201 113 b 233 257 228 232 232 254 b 246 436 263 351 258 419 b 233 442 243 439 242 442 b 132 344 206 442 168 406 b 79 235 100 292 81 236 l 26 17 b -7 -10 24 1 8 -10 l -15 -10 b -42 33 -35 -4 -46 14 l 61 461 b 104 488 67 481 85 492 b 131 461 118 485 128 474 b 233 511 164 494 199 511 "},"o":{"ha":453,"x_min":0,"x_max":0,"o":"m 307 503 b 363 181 399 463 424 321 b 344 146 357 168 351 157 b 357 143 349 144 353 143 b 436 190 389 139 417 156 b 454 231 443 203 450 219 l 464 257 b 507 281 469 276 489 286 b 531 238 526 275 536 256 b 521 206 528 226 525 217 b 497 156 515 192 507 172 b 365 72 468 101 419 72 l 349 72 b 304 85 333 75 318 79 b 139 -10 256 25 196 -10 b 89 1 122 -10 106 -6 b 3 133 42 22 11 68 b 35 324 -6 192 6 260 b 151 475 63 388 104 442 b 307 503 206 514 260 524 m 222 435 b 193 418 211 429 200 424 b 99 294 156 392 121 347 b 72 143 76 243 67 188 b 117 67 76 119 86 79 b 246 126 156 49 206 79 b 199 210 224 149 207 178 b 222 435 185 256 178 367 m 306 415 b 285 400 297 413 290 408 b 265 229 254 360 254 271 b 286 188 271 214 278 200 b 297 208 290 194 294 201 b 306 415 328 281 335 371 "},"p":{"ha":428,"x_min":0,"x_max":0,"o":"m 104 511 b 131 469 124 507 135 489 b 258 507 172 507 217 519 b 347 390 303 494 335 453 b 333 207 358 336 353 271 b 267 74 318 156 296 110 b 424 207 346 93 397 136 b 439 257 431 224 435 240 b 482 283 443 275 463 288 b 508 240 500 279 513 260 b 490 182 503 221 497 201 b 172 -7 432 29 289 -7 b 104 -1 136 -7 136 -7 b 38 54 76 7 54 25 l -8 -146 b -43 -174 -12 -162 -28 -174 b -51 -172 -46 -174 -49 -174 b -78 -131 -71 -168 -82 -149 l -21 113 l 63 485 b 104 511 67 504 85 515 m 228 442 b 169 410 211 442 190 429 b 97 278 139 379 113 331 b 85 129 81 225 76 171 b 125 65 92 94 107 71 b 193 96 143 60 168 71 b 265 228 224 126 250 175 b 278 376 282 279 286 335 b 238 440 271 411 256 435 b 228 442 235 440 232 442 "},"q":{"ha":493,"x_min":0,"x_max":0,"o":"m 249 496 b 311 447 274 488 294 471 l 314 460 b 356 488 318 479 338 492 b 383 444 375 483 388 464 l 324 183 b 351 63 315 117 329 71 b 489 206 385 50 453 110 b 504 256 496 222 500 239 b 546 282 508 274 528 286 b 572 239 565 276 578 258 b 556 181 568 219 563 200 b 361 -10 511 64 432 -10 b 326 -4 350 -10 338 -8 b 288 24 311 1 299 11 l 251 -135 b 217 -161 247 -151 233 -161 l 208 -161 b 182 -118 190 -157 178 -137 l 214 18 b 124 -18 185 -6 154 -18 b 94 -14 114 -18 104 -17 b 19 288 10 13 -24 144 b 249 496 63 429 163 521 m 218 429 b 88 267 178 429 117 365 b 115 54 54 160 75 67 b 256 215 156 42 224 108 b 268 365 272 268 276 322 b 228 428 261 400 246 422 b 218 429 225 429 222 429 "},"r":{"ha":418,"x_min":0,"x_max":0,"o":"m 86 607 b 111 603 94 608 103 607 b 133 551 133 590 133 561 b 124 481 133 533 131 511 b 190 460 140 471 163 464 b 261 418 213 457 242 447 b 258 213 297 364 275 281 b 244 146 251 186 244 160 b 276 58 243 100 257 65 b 336 81 292 53 314 61 b 404 192 364 106 389 146 l 431 265 b 474 286 436 283 456 293 b 496 242 492 281 501 261 l 469 168 b 382 29 450 113 418 63 b 286 -14 351 1 318 -14 b 254 -7 275 -14 264 -11 b 175 147 203 10 174 68 b 190 229 175 169 182 197 b 204 379 203 278 222 351 b 181 392 201 383 196 389 b 111 410 153 396 129 401 l 78 235 b 43 207 75 218 60 207 l 38 207 b 10 247 18 211 6 229 l 49 457 b 31 528 31 483 29 511 b 44 575 33 549 39 565 b 86 607 49 583 61 607 "},"s":{"ha":449,"x_min":0,"x_max":0,"o":"m 244 511 b 247 510 246 511 246 511 l 251 510 b 254 508 251 510 253 508 b 257 507 256 508 256 508 b 260 506 258 507 260 506 b 263 504 261 506 263 504 l 264 504 b 264 503 264 503 264 503 b 265 501 265 503 265 501 b 268 499 267 500 268 500 l 271 496 b 272 493 271 494 272 494 b 274 490 274 492 274 490 b 275 486 275 489 275 488 b 276 483 275 486 276 485 l 276 481 b 276 476 276 479 276 478 l 276 474 b 276 469 276 472 276 471 l 276 467 b 275 464 275 465 275 464 b 274 460 275 463 274 461 b 272 457 272 458 272 458 b 271 454 271 456 271 456 b 296 318 235 406 253 376 b 354 144 329 274 369 218 b 335 86 350 124 343 104 b 443 204 386 110 422 149 b 458 253 449 219 454 236 b 500 279 463 272 482 283 b 526 238 519 275 532 256 b 510 179 522 218 517 199 b 192 -10 451 25 308 -10 l 175 -10 b 172 -10 174 -10 172 -10 l 165 -10 b 47 39 121 -10 79 7 b -4 178 13 74 -6 124 b 10 246 -3 183 -3 207 b 53 269 15 264 35 275 b 76 225 72 264 82 244 b 67 176 68 193 67 176 l 67 175 b 99 89 65 140 76 110 b 165 61 115 71 140 61 l 171 61 b 174 61 172 61 172 61 b 285 160 239 65 271 93 b 239 276 294 201 268 236 b 211 315 229 289 221 301 b 194 256 206 293 200 272 b 178 197 188 228 182 208 b 144 175 172 183 158 175 b 132 176 140 175 136 175 b 111 222 113 183 104 204 b 126 274 115 231 121 251 b 213 496 151 365 176 450 b 214 497 213 496 214 496 l 214 499 b 217 500 215 499 215 499 b 218 503 217 501 218 501 b 221 504 219 503 221 504 l 225 507 b 228 508 225 507 226 507 b 231 510 229 508 229 508 l 233 510 b 238 511 235 510 236 511 l 240 511 b 244 511 242 511 243 511 "},"t":{"ha":238,"x_min":0,"x_max":0,"o":"m 140 658 b 167 615 158 654 171 635 l 140 500 l 185 500 b 219 465 204 500 219 483 b 185 431 219 446 204 431 l 124 431 l 119 413 l 74 213 b 97 68 57 133 72 78 b 235 211 126 57 194 107 b 250 261 240 228 246 244 b 292 288 254 279 274 292 b 318 244 311 282 324 264 b 301 186 314 225 308 206 b 107 -4 257 69 178 -4 b 72 1 96 -4 83 -3 b 6 228 8 26 -19 117 l 50 429 l 51 431 l 11 431 l 4 431 l -8 431 b -44 467 -28 431 -44 447 b -8 501 -44 486 -28 501 l 68 501 l 97 632 b 140 658 101 650 121 663 "},"u":{"ha":475,"x_min":0,"x_max":0,"o":"m 339 492 b 365 450 357 488 369 469 l 357 411 l 310 211 b 333 67 293 132 308 75 b 394 90 349 61 371 69 b 471 210 425 118 453 161 b 486 258 476 226 482 243 b 528 285 490 278 508 290 b 554 243 547 281 558 263 b 536 185 550 224 544 204 b 442 38 514 125 481 72 b 343 -7 408 8 375 -7 b 308 0 331 -7 319 -4 b 242 79 276 13 254 40 b 106 -7 201 25 151 -7 b 71 0 93 -7 82 -4 b 4 81 39 13 15 40 b 14 269 -11 135 -7 161 l 50 426 l 58 465 b 101 492 63 483 82 496 b 128 450 119 488 132 469 l 119 411 l 72 211 b 96 67 56 132 71 75 b 157 90 111 61 133 69 b 233 210 188 118 215 161 b 249 258 239 226 244 243 b 250 263 249 260 249 261 l 288 426 l 296 465 b 339 492 300 483 319 496 "},"v":{"ha":421,"x_min":0,"x_max":0,"o":"m 340 474 b 340 240 382 419 351 282 b 324 182 336 221 331 201 l 310 151 b 326 147 315 149 321 147 b 406 193 358 143 388 160 b 425 235 414 207 419 222 l 433 261 b 478 285 439 281 458 290 b 501 240 496 279 507 260 b 490 210 499 231 494 219 b 468 158 485 196 478 176 b 319 76 435 100 379 69 b 271 90 303 78 286 83 b 214 35 254 69 235 50 b 106 -8 178 6 139 -8 b 71 -3 93 -8 82 -7 b 4 224 7 22 -21 114 l 50 425 b 93 451 56 444 74 456 b 119 408 113 447 124 428 l 72 208 b 96 64 56 131 71 74 b 171 90 110 58 138 65 b 214 132 186 103 201 117 b 168 213 193 154 178 182 b 158 326 160 243 156 286 b 199 453 161 364 171 415 b 288 499 221 482 251 499 m 285 428 b 256 410 274 426 264 421 b 236 233 224 368 225 271 b 253 197 240 219 246 208 l 257 207 b 272 257 263 224 268 240 b 285 428 290 328 296 408 "},"w":{"ha":635,"x_min":0,"x_max":0,"o":"m 553 469 b 554 236 594 415 564 278 b 536 178 549 217 543 197 b 522 147 532 168 528 157 b 540 143 528 144 535 143 b 619 190 572 139 600 156 b 638 231 626 203 633 219 l 646 257 b 690 281 651 276 672 286 b 714 238 708 275 719 256 b 703 206 711 226 707 217 b 681 156 699 192 690 172 b 532 72 647 97 592 65 b 488 85 517 75 501 79 b 440 32 472 65 457 47 b 342 -12 408 3 374 -12 b 307 -6 331 -12 318 -10 b 242 74 275 6 253 35 b 106 -11 200 19 151 -11 b 71 -4 93 -11 82 -10 b 4 222 7 19 -21 111 l 50 422 l 58 460 b 101 488 63 479 82 492 b 128 444 119 483 132 464 l 119 407 l 72 206 b 96 61 56 128 71 71 b 157 86 111 56 133 65 b 233 206 188 113 215 157 b 246 246 239 218 243 232 l 288 421 l 296 458 b 338 486 300 478 318 490 b 364 443 357 482 368 463 l 356 406 l 317 239 b 315 229 317 235 315 232 l 310 204 b 332 60 292 126 307 69 b 393 85 347 54 369 64 b 429 126 406 96 418 110 b 381 210 407 149 390 176 b 372 267 376 225 374 244 b 421 460 369 297 367 403 b 501 494 442 482 469 494 m 499 424 b 472 411 488 424 479 419 b 442 271 447 385 439 321 b 449 229 443 256 446 240 b 465 193 453 217 458 204 l 469 204 b 485 253 476 219 481 236 l 485 254 b 499 424 503 324 508 404 "},"x":{"ha":522,"x_min":0,"x_max":0,"o":"m 207 511 b 288 481 240 511 267 501 b 331 328 322 446 329 390 b 439 472 371 372 407 419 b 488 483 449 489 471 493 b 500 435 504 474 510 451 b 331 225 451 356 396 289 b 381 63 331 149 338 79 b 518 206 410 51 478 101 b 533 256 524 222 529 239 b 575 282 538 274 557 286 b 601 239 594 276 607 258 b 585 181 597 219 592 200 b 390 -10 540 64 461 -10 b 356 -4 379 -10 367 -8 b 263 161 289 21 268 88 b 65 1 204 110 139 58 b 44 -7 60 -4 51 -7 b 17 7 33 -7 24 -1 b 22 57 4 22 7 44 b 261 256 115 128 193 190 l 261 265 b 238 431 261 331 263 406 b 207 442 233 435 225 442 b 79 238 135 442 89 290 b 38 210 75 219 57 206 b 10 251 18 214 6 232 b 49 375 10 254 21 314 b 207 511 100 488 163 511 "},"y":{"ha":390,"x_min":0,"x_max":0,"o":"m 101 488 b 128 446 119 483 132 465 l 119 407 l 72 207 b 96 63 56 128 71 72 b 157 86 111 57 133 65 b 233 206 188 114 215 157 b 249 256 239 222 244 239 b 317 465 274 332 282 374 b 363 486 324 483 344 493 b 382 440 381 479 389 458 b 272 50 342 332 308 194 b 214 -181 254 -26 235 -104 b 181 -207 210 -196 196 -207 b 171 -206 176 -207 174 -206 b 146 -161 151 -200 140 -181 b 193 25 163 -100 178 -37 b 106 -10 165 1 135 -10 b 71 -4 93 -10 82 -8 b 4 222 7 21 -21 111 l 50 424 l 58 461 b 101 488 63 481 82 492 "},"z":{"ha":419,"x_min":0,"x_max":0,"o":"m 206 499 b 300 458 243 499 275 485 b 343 328 331 425 347 376 b 251 156 339 263 300 201 b 254 154 253 154 253 154 b 326 78 289 139 314 111 b 269 -161 350 13 328 -82 b 94 -269 219 -231 156 -269 l 90 -269 b 56 -233 71 -268 56 -253 b 92 -199 56 -212 72 -199 b 213 -119 129 -200 176 -169 b 260 54 256 -60 275 11 b 225 90 254 69 242 82 b 157 92 203 100 178 100 b 111 113 139 85 118 94 b 131 158 104 131 113 150 b 274 333 210 190 268 274 b 249 410 275 361 265 392 b 206 428 238 422 222 428 b 78 225 133 428 88 278 b 36 197 74 206 56 193 b 8 239 17 201 4 219 b 47 363 8 242 19 301 b 206 499 99 475 161 499 "},"\\":{"ha":732,"x_min":0,"x_max":0,"o":"m 40 1110 b 79 1071 63 1110 71 1092 l 564 -68 b 524 -107 572 -90 546 -107 b 485 -68 503 -107 494 -90 l 1 1071 b 40 1110 -7 1092 19 1110 "},"·":{"ha":360,"x_min":0,"x_max":0,"o":"m 214 531 b 290 456 256 531 290 497 b 214 379 290 414 256 379 b 139 456 172 379 139 414 b 214 531 139 497 172 531 "},":":{"ha":411,"x_min":0,"x_max":0,"o":"m 265 531 b 342 456 307 531 342 497 b 265 379 342 414 307 379 b 190 456 224 379 190 414 b 265 531 190 497 224 531 m 214 164 b 290 89 256 164 290 131 b 214 13 290 47 256 13 b 139 89 172 13 139 47 b 214 164 139 131 172 164 "},",":{"ha":314,"x_min":0,"x_max":0,"o":"m 225 90 b 229 74 228 85 229 81 b 146 -82 238 17 189 -51 b 129 -87 140 -85 135 -87 b 100 -74 118 -89 106 -83 b 106 -28 88 -60 92 -39 b 122 -15 111 -24 117 -18 b 111 10 129 -8 125 1 b 83 63 96 22 85 40 b 225 90 76 149 197 167 "},"…":{"ha":871,"x_min":0,"x_max":0,"o":"m 158 153 b 235 78 200 153 235 119 b 158 3 235 36 200 3 b 83 78 117 3 83 36 b 158 153 83 119 117 153 m 438 153 b 514 78 479 153 514 119 b 438 3 514 36 479 3 b 363 78 396 3 363 36 b 438 153 363 119 396 153 m 711 153 b 788 78 753 153 788 119 b 711 3 788 36 753 3 b 636 78 669 3 636 36 b 711 153 636 119 669 153 "},"!":{"ha":485,"x_min":0,"x_max":0,"o":"m 369 1021 b 400 975 392 1018 404 996 l 296 497 l 246 282 b 214 251 243 264 229 254 b 199 251 208 250 204 250 b 169 299 178 256 165 278 l 218 514 l 324 992 b 369 1021 329 1013 349 1026 m 149 150 b 235 88 190 157 229 129 b 171 1 242 46 213 7 b 85 65 129 -6 92 24 b 149 150 79 107 107 144 "},"#":{"ha":1118,"x_min":0,"x_max":0,"o":"m 940 808 b 965 753 963 800 974 775 l 911 613 b 929 586 906 597 914 586 l 1075 586 b 1118 543 1099 586 1118 567 b 1075 500 1118 519 1099 500 l 894 500 b 858 475 881 500 864 489 l 801 331 b 818 306 796 317 804 306 l 988 306 b 1031 263 1011 306 1031 286 b 988 219 1031 239 1011 219 l 785 219 b 747 194 769 219 753 208 l 682 28 b 642 0 676 11 660 0 b 626 3 638 0 632 1 b 601 60 604 13 593 38 l 654 194 b 638 219 660 208 653 219 l 507 219 b 469 194 492 219 475 208 l 400 18 b 360 -10 393 0 378 -10 b 344 -7 354 -10 350 -8 b 319 49 322 1 311 26 l 376 194 b 360 219 382 208 374 219 l 182 219 b 139 263 158 219 139 239 b 182 306 139 286 158 306 l 393 306 b 431 331 408 306 425 317 l 486 475 b 469 500 492 489 485 500 l 299 500 b 256 543 275 500 256 519 b 299 586 256 567 275 586 l 503 586 b 535 596 518 586 532 590 l 538 606 l 601 774 b 658 799 610 796 635 807 b 683 743 681 790 692 765 l 633 613 b 650 586 628 597 635 586 l 782 586 b 814 601 797 586 811 593 l 821 615 l 885 783 b 940 808 893 806 918 817 m 617 500 b 579 475 601 500 585 489 l 524 331 b 540 306 518 317 525 306 l 672 306 b 708 331 686 306 703 317 l 765 475 b 747 500 771 489 763 500 "},".":{"ha":318,"x_min":0,"x_max":0,"o":"m 158 153 b 235 78 200 153 235 119 b 158 3 235 36 200 3 b 83 78 117 3 83 36 b 158 153 83 119 117 153 "},"?":{"ha":789,"x_min":0,"x_max":0,"o":"m 421 1038 b 704 771 547 1021 692 931 b 471 431 719 593 588 507 b 272 211 378 369 289 311 b 240 179 269 194 256 182 b 226 179 236 178 232 179 b 194 225 206 182 190 203 b 429 497 217 358 325 429 b 626 765 540 569 638 635 b 411 960 619 850 550 942 b 172 831 325 969 210 943 b 219 660 147 760 165 696 b 424 682 269 626 354 619 b 479 679 440 696 464 694 b 476 624 493 664 492 638 b 175 594 392 546 268 535 b 99 856 92 650 61 751 b 421 1038 142 985 269 1056 m 206 150 b 282 75 247 150 282 117 b 206 0 282 33 247 0 b 131 75 164 0 131 33 b 206 150 131 117 164 150 "},"\"":{"ha":321,"x_min":0,"x_max":0,"o":"m 282 908 b 321 868 303 908 321 890 l 319 717 b 281 678 319 696 303 678 b 242 717 260 678 242 696 l 243 869 b 282 908 243 890 260 908 m 138 903 b 176 864 158 903 176 885 l 175 711 b 136 672 175 690 158 672 b 97 713 115 672 97 690 l 99 864 b 138 903 99 885 115 903 "},"'":{"ha":231,"x_min":0,"x_max":0,"o":"m 225 775 b 229 758 228 769 229 765 b 146 603 238 701 189 633 b 129 597 140 600 135 597 b 100 611 118 596 106 601 b 106 657 88 625 92 646 b 122 669 111 661 117 667 b 111 694 129 676 125 686 b 83 747 96 707 85 725 b 225 775 76 833 197 851 "},";":{"ha":407,"x_min":0,"x_max":0,"o":"m 261 531 b 338 456 303 531 338 497 b 261 379 338 414 303 379 b 186 456 219 379 186 414 b 261 531 186 497 219 531 m 281 90 b 285 74 283 85 285 81 b 201 -82 293 17 244 -51 b 185 -87 196 -85 190 -87 b 156 -74 174 -89 161 -83 b 161 -28 143 -60 147 -39 b 178 -15 167 -24 172 -18 b 167 10 185 -8 181 1 b 139 63 151 22 140 40 b 281 90 132 149 253 167 "},"/":{"ha":593,"x_min":0,"x_max":0,"o":"m 608 1110 b 647 1071 629 1110 654 1092 l 163 -68 b 124 -107 153 -90 144 -107 b 85 -68 101 -107 75 -90 l 569 1071 b 608 1110 576 1092 586 1110 "},"_":{"ha":1029,"x_min":0,"x_max":0,"o":"m 913 93 b 960 46 939 93 960 72 b 913 0 960 21 939 0 l 186 0 b 139 46 160 0 139 21 b 186 93 139 72 160 93 "},"(":{"ha":550,"x_min":0,"x_max":0,"o":"m 500 1040 b 547 1022 518 1049 539 1042 b 529 975 556 1004 547 983 b 168 522 499 961 231 832 b 163 311 154 451 151 381 b 211 142 171 254 188 197 b 317 -28 253 49 303 -11 b 314 -79 331 -43 329 -65 b 290 -87 307 -85 299 -87 b 263 -76 281 -87 271 -83 b 146 113 247 -58 190 10 b 90 300 118 174 100 236 b 97 536 79 379 82 458 b 186 760 114 615 143 692 b 314 914 219 815 263 868 b 500 1040 397 992 478 1031 "},")":{"ha":657,"x_min":0,"x_max":0,"o":"m 385 1049 b 411 1036 394 1049 404 1044 b 522 843 426 1017 481 947 b 569 654 546 781 563 717 b 554 418 578 575 574 496 b 458 197 535 339 503 265 b 325 49 421 143 376 93 b 133 -72 238 -26 157 -62 b 86 -51 115 -79 94 -71 b 106 -4 79 -33 88 -12 b 485 435 138 8 410 128 b 497 646 501 504 506 575 b 454 817 492 703 476 761 b 356 990 417 911 369 974 b 360 1040 343 1006 344 1028 b 385 1049 367 1046 376 1049 "},"-":{"ha":638,"x_min":0,"x_max":0,"o":"m 522 322 b 568 276 547 322 568 301 b 522 229 568 250 547 229 l 186 229 b 139 276 160 229 139 250 b 186 322 139 301 160 322 "}," ":{"ha":347,"x_min":0,"x_max":0,"o":""},"|":{"ha":349,"x_min":0,"x_max":0,"o":"m 175 1008 b 210 972 194 1008 210 992 l 210 -157 b 175 -192 210 -176 194 -192 b 139 -157 156 -192 139 -176 l 139 972 b 175 1008 139 992 156 1008 "},"@":{"ha":992,"x_min":0,"x_max":0,"o":"m 524 761 b 678 740 576 765 629 758 b 879 576 765 708 836 650 b 897 260 933 481 933 363 b 708 81 868 179 806 81 b 674 86 696 81 685 82 b 604 179 638 100 614 133 b 443 88 557 121 497 88 b 393 97 426 88 410 90 b 340 411 304 136 281 275 b 454 560 367 474 408 526 b 606 586 507 596 560 606 b 660 542 628 576 646 561 l 661 551 b 704 578 665 571 685 582 b 731 536 722 574 735 556 l 722 497 l 675 297 b 699 153 658 218 674 163 b 760 176 714 147 736 156 b 854 435 829 238 863 343 b 821 544 851 474 840 511 b 656 678 786 604 728 651 b 229 449 489 739 299 636 b 231 174 196 357 197 260 b 407 -1 264 90 326 28 b 678 32 494 -33 593 -21 b 724 22 693 42 714 38 b 713 -24 733 6 728 -14 b 506 -86 649 -65 576 -86 b 385 -64 464 -86 424 -79 b 253 19 335 -46 290 -18 b 169 150 217 57 189 100 b 167 471 129 250 128 364 b 376 717 206 578 281 665 b 524 761 424 742 472 756 m 557 525 b 496 501 533 525 510 511 b 406 383 460 476 426 433 b 422 163 368 299 367 188 b 444 158 429 160 436 158 b 594 300 497 158 563 226 b 619 447 617 350 626 404 b 578 521 617 469 608 508 b 557 525 571 524 564 525 "},"&":{"ha":917,"x_min":0,"x_max":0,"o":"m 585 863 b 710 781 640 857 688 826 b 697 615 735 731 731 668 b 651 604 689 600 667 594 b 639 651 635 614 629 635 b 647 749 658 685 663 721 b 576 793 635 775 610 790 b 429 657 517 800 446 751 b 506 525 425 631 417 546 b 531 483 524 521 536 501 b 489 457 526 464 508 453 b 254 338 386 482 297 410 b 256 49 207 263 179 143 b 489 -37 311 -19 400 -51 b 675 122 574 -24 642 35 b 667 285 676 128 700 207 b 635 303 663 294 647 304 b 521 213 550 297 524 221 b 488 188 517 196 503 188 b 478 189 483 188 481 188 b 454 232 460 194 450 213 b 675 371 471 286 538 388 b 849 460 776 360 838 392 b 888 489 850 479 868 493 b 917 450 906 488 919 469 b 757 303 911 417 886 319 b 742 281 744 301 739 292 b 740 100 769 186 742 104 b 500 -107 697 -12 611 -87 b 447 -111 482 -108 465 -111 b 201 4 353 -111 263 -69 b 196 376 119 106 118 251 b 367 517 240 446 301 494 b 376 542 378 522 382 532 b 361 668 358 578 353 621 b 585 863 379 775 468 876 "}}}
